<svg width="1920" height="1974" viewBox="0 0 1920 1974" fill="none" xmlns="http://www.w3.org/2000/svg">
<rect x="226.305" y="1521.99" width="18.0643" height="137.991" rx="9.03213" transform="rotate(30 226.305 1521.99)" fill="white"/>
<rect x="265.695" y="1487.37" width="18.0643" height="137.991" rx="9.03213" transform="rotate(30 265.695 1487.37)" fill="white"/>
<rect x="336.049" y="1624.61" width="18.0643" height="74.9745" rx="9.03213" transform="rotate(30 336.049 1624.61)" fill="white"/>
<rect x="451.912" y="1760.92" width="18.0643" height="74.9745" rx="9.03213" transform="rotate(135 451.912 1760.92)" fill="white"/>
<rect x="428.077" y="1760.67" width="18.0643" height="74.9745" rx="9.03213" transform="rotate(135 428.077 1760.67)" fill="white"/>
<rect x="341.017" y="1766.94" width="18.0643" height="74.9745" rx="9.03213" transform="rotate(135 341.017 1766.94)" fill="white"/>
<rect x="378.45" y="1521.24" width="20.4097" height="74.9745" rx="10.2048" transform="rotate(30 378.45 1521.24)" fill="white"/>
<rect x="168.817" y="1665" width="20.4097" height="27.0281" rx="10.2048" transform="rotate(30 168.817 1665)" fill="white"/>
<rect x="285.983" y="1464.54" width="20.4097" height="27.0281" rx="10.2048" transform="rotate(30 285.983 1464.54)" fill="white"/>
<rect x="227.525" y="1487.37" width="20.4097" height="27.0281" rx="10.2048" transform="rotate(30 227.525 1487.37)" fill="white"/>
<rect x="285.983" y="1464.54" width="20.4097" height="27.0281" rx="10.2048" transform="rotate(30 285.983 1464.54)" fill="white"/>
<rect x="347.703" y="1691.09" width="20.4097" height="27.0281" rx="10.2048" transform="rotate(30 347.703 1691.09)" fill="white"/>
<rect x="347.703" y="1691.09" width="20.4097" height="27.0281" rx="10.2048" transform="rotate(30 347.703 1691.09)" fill="white"/>
<rect x="425.229" y="1677.29" width="20.4097" height="27.0281" rx="10.2048" transform="rotate(30 425.229 1677.29)" fill="white"/>
<rect x="336.049" y="1624.61" width="18.0643" height="74.9745" rx="9.03213" transform="rotate(30 336.049 1624.61)" fill="white"/>
<rect x="488.322" y="1173" width="79.0453" height="603.818" rx="39.5226" transform="rotate(30 488.322 1173)" fill="white"/>
<rect x="97.8481" y="1696.63" width="12.8024" height="97.7959" rx="6.40119" transform="rotate(-45 97.8481 1696.63)" fill="white"/>
<rect x="67.741" y="1692.12" width="12.8024" height="97.7959" rx="6.40119" transform="rotate(-45 67.741 1692.12)" fill="white"/>
<rect x="107.089" y="1434.43" width="12.8024" height="97.7959" rx="6.40119" transform="rotate(30 107.089 1434.43)" fill="white"/>
<rect x="156.95" y="1531.7" width="12.8024" height="53.1354" rx="6.40119" transform="rotate(30 156.95 1531.7)" fill="white"/>
<rect x="175.798" y="1521.56" width="12.8024" height="53.1354" rx="6.40119" transform="rotate(30 175.798 1521.56)" fill="white"/>
<rect x="187" y="1458.44" width="14.4646" height="53.1354" rx="7.2323" transform="rotate(30 187 1458.44)" fill="white"/>
<rect x="38.4303" y="1560.32" width="14.4646" height="19.1551" rx="7.2323" transform="rotate(30 38.4303 1560.32)" fill="white"/>
<path d="M25.2365 1522.53C27.2337 1519.07 31.6569 1517.88 35.116 1519.88C38.5752 1521.88 39.7604 1526.3 37.7632 1529.76L35.418 1533.82C33.4208 1537.28 28.9976 1538.47 25.5385 1536.47C22.0793 1534.47 20.8941 1530.05 22.8913 1526.59L25.2365 1522.53Z" fill="white"/>
<rect x="121.468" y="1418.25" width="14.4646" height="19.1551" rx="7.2323" transform="rotate(30 121.468 1418.25)" fill="white"/>
<rect x="80.038" y="1434.43" width="14.4646" height="19.1551" rx="7.2323" transform="rotate(30 80.038 1434.43)" fill="white"/>
<rect x="121.468" y="1418.25" width="14.4646" height="19.1551" rx="7.2323" transform="rotate(30 121.468 1418.25)" fill="white"/>
<rect x="165.209" y="1578.82" width="14.4646" height="19.1551" rx="7.2323" transform="rotate(30 165.209 1578.82)" fill="white"/>
<rect x="102.157" y="1636.15" width="14.4646" height="19.1551" rx="7.2323" transform="rotate(30 102.157 1636.15)" fill="white"/>
<rect x="156.95" y="1531.7" width="12.8024" height="53.1354" rx="6.40119" transform="rotate(30 156.95 1531.7)" fill="white"/>
<rect x="77.0282" y="1438.44" width="12.8024" height="53.1354" rx="6.40119" transform="rotate(30 77.0282 1438.44)" fill="white"/>
<rect x="58.1802" y="1448.58" width="12.8024" height="53.1354" rx="6.40119" transform="rotate(30 58.1802 1448.58)" fill="white"/>
<rect x="213.967" y="1292.42" width="56.0204" height="427.934" rx="28.0102" transform="rotate(30 213.967 1292.42)" fill="white"/>
<rect x="542.155" y="1605.89" width="12.8024" height="97.7959" rx="6.40119" transform="rotate(135 542.155 1605.89)" fill="white"/>
<rect x="533.073" y="1538.71" width="12.8024" height="97.7959" rx="6.40119" transform="rotate(135 533.073 1538.71)" fill="white"/>
<rect x="558.631" y="1639.21" width="12.8024" height="97.7959" rx="6.40119" transform="rotate(135 558.631 1639.21)" fill="white"/>
<rect x="451.778" y="1662.19" width="12.8024" height="53.1354" rx="6.40119" transform="rotate(135 451.778 1662.19)" fill="white"/>
<rect x="456.689" y="1683.02" width="12.8024" height="53.1354" rx="6.40119" transform="rotate(135 456.689 1683.02)" fill="white"/>
<rect x="514.762" y="1710.18" width="14.4646" height="53.1354" rx="7.2323" transform="rotate(135 514.762 1710.18)" fill="white"/>
<rect x="454.801" y="1540.3" width="14.4646" height="19.1551" rx="7.2323" transform="rotate(135 454.801 1540.3)" fill="white"/>
<rect x="505.988" y="1493.39" width="14.4646" height="19.1551" rx="7.2323" transform="rotate(135 505.988 1493.39)" fill="white"/>
<rect x="451.795" y="1490.63" width="14.4646" height="19.1551" rx="7.2323" transform="rotate(135 451.795 1490.63)" fill="white"/>
<rect x="570.539" y="1657.28" width="14.4646" height="19.1551" rx="7.2323" transform="rotate(135 570.539 1657.28)" fill="white"/>
<rect x="565.632" y="1613.08" width="14.4646" height="19.1551" rx="7.2323" transform="rotate(135 565.632 1613.08)" fill="white"/>
<rect x="570.539" y="1657.28" width="14.4646" height="19.1551" rx="7.2323" transform="rotate(135 570.539 1657.28)" fill="white"/>
<rect x="404.126" y="1657.98" width="14.4646" height="19.1551" rx="7.2323" transform="rotate(135 404.126 1657.98)" fill="white"/>
<rect x="451.778" y="1662.19" width="12.8024" height="53.1354" rx="6.40119" transform="rotate(135 451.778 1662.19)" fill="white"/>
<rect x="733" y="1849.27" width="56.0204" height="427.934" rx="28.0102" transform="rotate(135 733 1849.27)" fill="white"/>
<rect x="741.305" y="1506.99" width="18.0643" height="137.991" rx="9.03213" transform="rotate(30 741.305 1506.99)" fill="white"/>
<rect x="780.695" y="1472.37" width="18.0643" height="137.991" rx="9.03213" transform="rotate(30 780.695 1472.37)" fill="white"/>
<rect x="851.049" y="1609.61" width="18.0643" height="74.9745" rx="9.03213" transform="rotate(30 851.049 1609.61)" fill="white"/>
<rect x="966.912" y="1745.92" width="18.0643" height="74.9745" rx="9.03213" transform="rotate(135 966.912 1745.92)" fill="white"/>
<rect x="943.077" y="1745.67" width="18.0643" height="74.9745" rx="9.03213" transform="rotate(135 943.077 1745.67)" fill="white"/>
<rect x="856.017" y="1751.94" width="18.0643" height="74.9745" rx="9.03213" transform="rotate(135 856.017 1751.94)" fill="white"/>
<rect x="893.45" y="1506.24" width="20.4097" height="74.9745" rx="10.2048" transform="rotate(30 893.45 1506.24)" fill="white"/>
<rect x="683.817" y="1650" width="20.4097" height="27.0281" rx="10.2048" transform="rotate(30 683.817 1650)" fill="white"/>
<rect x="800.983" y="1449.54" width="20.4097" height="27.0281" rx="10.2048" transform="rotate(30 800.983 1449.54)" fill="white"/>
<rect x="742.525" y="1472.37" width="20.4097" height="27.0281" rx="10.2048" transform="rotate(30 742.525 1472.37)" fill="white"/>
<rect x="800.983" y="1449.54" width="20.4097" height="27.0281" rx="10.2048" transform="rotate(30 800.983 1449.54)" fill="white"/>
<rect x="862.703" y="1676.09" width="20.4097" height="27.0281" rx="10.2048" transform="rotate(30 862.703 1676.09)" fill="white"/>
<rect x="862.703" y="1676.09" width="20.4097" height="27.0281" rx="10.2048" transform="rotate(30 862.703 1676.09)" fill="white"/>
<rect x="940.229" y="1662.29" width="20.4097" height="27.0281" rx="10.2048" transform="rotate(30 940.229 1662.29)" fill="white"/>
<rect x="851.049" y="1609.61" width="18.0643" height="74.9745" rx="9.03213" transform="rotate(30 851.049 1609.61)" fill="white"/>
<rect x="1003.32" y="1158" width="79.0453" height="603.818" rx="39.5226" transform="rotate(30 1003.32 1158)" fill="white"/>
<rect x="612.848" y="1681.63" width="12.8024" height="97.7959" rx="6.40119" transform="rotate(-45 612.848 1681.63)" fill="white"/>
<rect x="582.741" y="1677.12" width="12.8024" height="97.7959" rx="6.40119" transform="rotate(-45 582.741 1677.12)" fill="white"/>
<rect x="622.089" y="1419.43" width="12.8024" height="97.7959" rx="6.40119" transform="rotate(30 622.089 1419.43)" fill="white"/>
<rect x="671.95" y="1516.7" width="12.8024" height="53.1354" rx="6.40119" transform="rotate(30 671.95 1516.7)" fill="white"/>
<rect x="690.798" y="1506.56" width="12.8024" height="53.1354" rx="6.40119" transform="rotate(30 690.798 1506.56)" fill="white"/>
<rect x="702" y="1443.44" width="14.4646" height="53.1354" rx="7.2323" transform="rotate(30 702 1443.44)" fill="white"/>
<rect x="553.43" y="1545.32" width="14.4646" height="19.1551" rx="7.2323" transform="rotate(30 553.43 1545.32)" fill="white"/>
<path d="M540.237 1507.53C542.234 1504.07 546.657 1502.88 550.116 1504.88C553.575 1506.88 554.76 1511.3 552.763 1514.76L550.418 1518.82C548.421 1522.28 543.998 1523.47 540.538 1521.47C537.079 1519.47 535.894 1515.05 537.891 1511.59L540.237 1507.53Z" fill="white"/>
<rect x="636.468" y="1403.25" width="14.4646" height="19.1551" rx="7.2323" transform="rotate(30 636.468 1403.25)" fill="white"/>
<rect x="595.038" y="1419.43" width="14.4646" height="19.1551" rx="7.2323" transform="rotate(30 595.038 1419.43)" fill="white"/>
<rect x="636.468" y="1403.25" width="14.4646" height="19.1551" rx="7.2323" transform="rotate(30 636.468 1403.25)" fill="white"/>
<rect x="680.209" y="1563.82" width="14.4646" height="19.1551" rx="7.2323" transform="rotate(30 680.209 1563.82)" fill="white"/>
<rect x="617.157" y="1621.15" width="14.4646" height="19.1551" rx="7.2323" transform="rotate(30 617.157 1621.15)" fill="white"/>
<rect x="671.95" y="1516.7" width="12.8024" height="53.1354" rx="6.40119" transform="rotate(30 671.95 1516.7)" fill="white"/>
<rect x="592.028" y="1423.44" width="12.8024" height="53.1354" rx="6.40119" transform="rotate(30 592.028 1423.44)" fill="white"/>
<rect x="573.18" y="1433.58" width="12.8024" height="53.1354" rx="6.40119" transform="rotate(30 573.18 1433.58)" fill="white"/>
<rect x="728.967" y="1277.42" width="56.0204" height="427.934" rx="28.0102" transform="rotate(30 728.967 1277.42)" fill="white"/>
<rect x="1057.15" y="1590.89" width="12.8024" height="97.7959" rx="6.40119" transform="rotate(135 1057.15 1590.89)" fill="white"/>
<rect x="1048.07" y="1523.71" width="12.8024" height="97.7959" rx="6.40119" transform="rotate(135 1048.07 1523.71)" fill="white"/>
<rect x="1073.63" y="1624.21" width="12.8024" height="97.7959" rx="6.40119" transform="rotate(135 1073.63 1624.21)" fill="white"/>
<rect x="966.778" y="1647.19" width="12.8024" height="53.1354" rx="6.40119" transform="rotate(135 966.778 1647.19)" fill="white"/>
<rect x="971.689" y="1668.02" width="12.8024" height="53.1354" rx="6.40119" transform="rotate(135 971.689 1668.02)" fill="white"/>
<rect x="1029.76" y="1695.18" width="14.4646" height="53.1354" rx="7.2323" transform="rotate(135 1029.76 1695.18)" fill="white"/>
<rect x="969.801" y="1525.3" width="14.4646" height="19.1551" rx="7.2323" transform="rotate(135 969.801 1525.3)" fill="white"/>
<rect x="1020.99" y="1478.39" width="14.4646" height="19.1551" rx="7.2323" transform="rotate(135 1020.99 1478.39)" fill="white"/>
<rect x="966.795" y="1475.63" width="14.4646" height="19.1551" rx="7.2323" transform="rotate(135 966.795 1475.63)" fill="white"/>
<rect x="1085.54" y="1642.28" width="14.4646" height="19.1551" rx="7.2323" transform="rotate(135 1085.54 1642.28)" fill="white"/>
<rect x="1080.63" y="1598.08" width="14.4646" height="19.1551" rx="7.2323" transform="rotate(135 1080.63 1598.08)" fill="white"/>
<rect x="1085.54" y="1642.28" width="14.4646" height="19.1551" rx="7.2323" transform="rotate(135 1085.54 1642.28)" fill="white"/>
<rect x="919.126" y="1642.98" width="14.4646" height="19.1551" rx="7.2323" transform="rotate(135 919.126 1642.98)" fill="white"/>
<rect x="966.778" y="1647.19" width="12.8024" height="53.1354" rx="6.40119" transform="rotate(135 966.778 1647.19)" fill="white"/>
<rect x="1248" y="1834.27" width="56.0204" height="427.934" rx="28.0102" transform="rotate(135 1248 1834.27)" fill="white"/>
<rect x="1232.31" y="1473.99" width="18.0643" height="137.991" rx="9.03213" transform="rotate(30 1232.31 1473.99)" fill="white"/>
<rect x="1271.7" y="1439.37" width="18.0643" height="137.991" rx="9.03213" transform="rotate(30 1271.7 1439.37)" fill="white"/>
<rect x="1342.05" y="1576.61" width="18.0643" height="74.9745" rx="9.03213" transform="rotate(30 1342.05 1576.61)" fill="white"/>
<rect x="1457.91" y="1712.92" width="18.0643" height="74.9745" rx="9.03213" transform="rotate(135 1457.91 1712.92)" fill="white"/>
<rect x="1434.08" y="1712.67" width="18.0643" height="74.9745" rx="9.03213" transform="rotate(135 1434.08 1712.67)" fill="white"/>
<rect x="1347.02" y="1718.94" width="18.0643" height="74.9745" rx="9.03213" transform="rotate(135 1347.02 1718.94)" fill="white"/>
<rect x="1384.45" y="1473.24" width="20.4097" height="74.9745" rx="10.2048" transform="rotate(30 1384.45 1473.24)" fill="white"/>
<rect x="1174.82" y="1617" width="20.4097" height="27.0281" rx="10.2048" transform="rotate(30 1174.82 1617)" fill="white"/>
<rect x="1291.98" y="1416.54" width="20.4097" height="27.0281" rx="10.2048" transform="rotate(30 1291.98 1416.54)" fill="white"/>
<rect x="1233.53" y="1439.37" width="20.4097" height="27.0281" rx="10.2048" transform="rotate(30 1233.53 1439.37)" fill="white"/>
<rect x="1291.98" y="1416.54" width="20.4097" height="27.0281" rx="10.2048" transform="rotate(30 1291.98 1416.54)" fill="white"/>
<rect x="1353.7" y="1643.09" width="20.4097" height="27.0281" rx="10.2048" transform="rotate(30 1353.7 1643.09)" fill="white"/>
<rect x="1353.7" y="1643.09" width="20.4097" height="27.0281" rx="10.2048" transform="rotate(30 1353.7 1643.09)" fill="white"/>
<rect x="1431.23" y="1629.29" width="20.4097" height="27.0281" rx="10.2048" transform="rotate(30 1431.23 1629.29)" fill="white"/>
<rect x="1342.05" y="1576.61" width="18.0643" height="74.9745" rx="9.03213" transform="rotate(30 1342.05 1576.61)" fill="white"/>
<rect x="1494.32" y="1125" width="79.0453" height="603.818" rx="39.5226" transform="rotate(30 1494.32 1125)" fill="white"/>
<rect x="1103.85" y="1648.63" width="12.8024" height="97.7959" rx="6.40119" transform="rotate(-45 1103.85 1648.63)" fill="white"/>
<rect x="1073.74" y="1644.12" width="12.8024" height="97.7959" rx="6.40119" transform="rotate(-45 1073.74 1644.12)" fill="white"/>
<rect x="1113.09" y="1386.43" width="12.8024" height="97.7959" rx="6.40119" transform="rotate(30 1113.09 1386.43)" fill="white"/>
<rect x="1162.95" y="1483.7" width="12.8024" height="53.1354" rx="6.40119" transform="rotate(30 1162.95 1483.7)" fill="white"/>
<rect x="1181.8" y="1473.56" width="12.8024" height="53.1354" rx="6.40119" transform="rotate(30 1181.8 1473.56)" fill="white"/>
<rect x="1193" y="1410.44" width="14.4646" height="53.1354" rx="7.2323" transform="rotate(30 1193 1410.44)" fill="white"/>
<rect x="1044.43" y="1512.32" width="14.4646" height="19.1551" rx="7.2323" transform="rotate(30 1044.43 1512.32)" fill="white"/>
<path d="M1031.24 1474.53C1033.23 1471.07 1037.66 1469.88 1041.12 1471.88C1044.58 1473.88 1045.76 1478.3 1043.76 1481.76L1041.42 1485.82C1039.42 1489.28 1035 1490.47 1031.54 1488.47C1028.08 1486.47 1026.89 1482.05 1028.89 1478.59L1031.24 1474.53Z" fill="white"/>
<rect x="1127.47" y="1370.25" width="14.4646" height="19.1551" rx="7.2323" transform="rotate(30 1127.47 1370.25)" fill="white"/>
<rect x="1086.04" y="1386.43" width="14.4646" height="19.1551" rx="7.2323" transform="rotate(30 1086.04 1386.43)" fill="white"/>
<rect x="1127.47" y="1370.25" width="14.4646" height="19.1551" rx="7.2323" transform="rotate(30 1127.47 1370.25)" fill="white"/>
<rect x="1171.21" y="1530.82" width="14.4646" height="19.1551" rx="7.2323" transform="rotate(30 1171.21 1530.82)" fill="white"/>
<rect x="1108.16" y="1588.15" width="14.4646" height="19.1551" rx="7.2323" transform="rotate(30 1108.16 1588.15)" fill="white"/>
<rect x="1162.95" y="1483.7" width="12.8024" height="53.1354" rx="6.40119" transform="rotate(30 1162.95 1483.7)" fill="white"/>
<rect x="1083.03" y="1390.44" width="12.8024" height="53.1354" rx="6.40119" transform="rotate(30 1083.03 1390.44)" fill="white"/>
<rect x="1064.18" y="1400.58" width="12.8024" height="53.1354" rx="6.40119" transform="rotate(30 1064.18 1400.58)" fill="white"/>
<rect x="1219.97" y="1244.42" width="56.0204" height="427.934" rx="28.0102" transform="rotate(30 1219.97 1244.42)" fill="white"/>
<rect x="1548.15" y="1557.89" width="12.8024" height="97.7959" rx="6.40119" transform="rotate(135 1548.15 1557.89)" fill="white"/>
<rect x="1539.07" y="1490.71" width="12.8024" height="97.7959" rx="6.40119" transform="rotate(135 1539.07 1490.71)" fill="white"/>
<rect x="1564.63" y="1591.21" width="12.8024" height="97.7959" rx="6.40119" transform="rotate(135 1564.63 1591.21)" fill="white"/>
<rect x="1457.78" y="1614.19" width="12.8024" height="53.1354" rx="6.40119" transform="rotate(135 1457.78 1614.19)" fill="white"/>
<rect x="1462.69" y="1635.02" width="12.8024" height="53.1354" rx="6.40119" transform="rotate(135 1462.69 1635.02)" fill="white"/>
<rect x="1520.76" y="1662.18" width="14.4646" height="53.1354" rx="7.2323" transform="rotate(135 1520.76 1662.18)" fill="white"/>
<rect x="1460.8" y="1492.3" width="14.4646" height="19.1551" rx="7.2323" transform="rotate(135 1460.8 1492.3)" fill="white"/>
<rect x="1511.99" y="1445.39" width="14.4646" height="19.1551" rx="7.2323" transform="rotate(135 1511.99 1445.39)" fill="white"/>
<rect x="1457.8" y="1442.63" width="14.4646" height="19.1551" rx="7.2323" transform="rotate(135 1457.8 1442.63)" fill="white"/>
<rect x="1576.54" y="1609.28" width="14.4646" height="19.1551" rx="7.2323" transform="rotate(135 1576.54 1609.28)" fill="white"/>
<rect x="1571.63" y="1565.08" width="14.4646" height="19.1551" rx="7.2323" transform="rotate(135 1571.63 1565.08)" fill="white"/>
<rect x="1576.54" y="1609.28" width="14.4646" height="19.1551" rx="7.2323" transform="rotate(135 1576.54 1609.28)" fill="white"/>
<rect x="1410.13" y="1609.98" width="14.4646" height="19.1551" rx="7.2323" transform="rotate(135 1410.13 1609.98)" fill="white"/>
<rect x="1457.78" y="1614.19" width="12.8024" height="53.1354" rx="6.40119" transform="rotate(135 1457.78 1614.19)" fill="white"/>
<rect x="1739" y="1801.27" width="56.0204" height="427.934" rx="28.0102" transform="rotate(135 1739 1801.27)" fill="white"/>
<rect x="1454.34" y="1271.1" width="27.0101" height="206.327" rx="13.5051" transform="rotate(60 1454.34 1271.1)" fill="white"/>
<rect x="1531.23" y="1255.71" width="27.0101" height="206.327" rx="13.5051" transform="rotate(60 1531.23 1255.71)" fill="white"/>
<rect x="1519.73" y="1486.02" width="27.0101" height="112.104" rx="13.5051" transform="rotate(60 1519.73 1486.02)" fill="white"/>
<rect x="1567.85" y="1749.15" width="27.0101" height="112.104" rx="13.5051" transform="rotate(165 1567.85 1749.15)" fill="white"/>
<rect x="1537.18" y="1731.01" width="27.0101" height="112.104" rx="13.5051" transform="rotate(165 1537.18 1731.01)" fill="white"/>
<rect x="1419.75" y="1674.04" width="27.0101" height="112.104" rx="13.5051" transform="rotate(165 1419.75 1674.04)" fill="white"/>
<rect x="1651.91" y="1383.87" width="30.517" height="112.104" rx="15.2585" transform="rotate(60 1651.91 1383.87)" fill="white"/>
<rect x="1272.98" y="1413.3" width="30.517" height="40.413" rx="15.2585" transform="rotate(60 1272.98 1413.3)" fill="white"/>
<rect x="1574.57" y="1241.32" width="30.517" height="40.413" rx="15.2585" transform="rotate(60 1574.57 1241.32)" fill="white"/>
<rect x="1481.8" y="1227.18" width="30.517" height="40.413" rx="15.2585" transform="rotate(60 1481.8 1227.18)" fill="white"/>
<rect x="1574.57" y="1241.32" width="30.517" height="40.413" rx="15.2585" transform="rotate(60 1574.57 1241.32)" fill="white"/>
<rect x="1485.11" y="1580.83" width="30.517" height="40.413" rx="15.2585" transform="rotate(60 1485.11 1580.83)" fill="white"/>
<rect x="1485.11" y="1580.83" width="30.517" height="40.413" rx="15.2585" transform="rotate(60 1485.11 1580.83)" fill="white"/>
<rect x="1595.82" y="1620.92" width="30.517" height="40.413" rx="15.2585" transform="rotate(60 1595.82 1620.92)" fill="white"/>
<rect x="1519.73" y="1486.02" width="27.0101" height="112.104" rx="13.5051" transform="rotate(60 1519.73 1486.02)" fill="white"/>
<rect x="2054.53" y="1015.08" width="118.19" height="902.844" rx="59.0952" transform="rotate(60 2054.53 1015.08)" fill="white"/>
<rect x="1157.43" y="1401.21" width="19.1424" height="146.227" rx="9.57122" transform="rotate(-15 1157.43 1401.21)" fill="white"/>
<rect x="1121.82" y="1372.85" width="19.1424" height="146.227" rx="9.57122" transform="rotate(-15 1121.82 1372.85)" fill="white"/>
<rect x="1365.42" y="1068.59" width="19.1424" height="146.227" rx="9.57122" transform="rotate(60 1365.42 1068.59)" fill="white"/>
<rect x="1357.27" y="1231.82" width="19.1424" height="79.4494" rx="9.57122" transform="rotate(60 1357.27 1231.82)" fill="white"/>
<rect x="1389.26" y="1232.78" width="19.1424" height="79.4494" rx="9.57122" transform="rotate(60 1389.26 1232.78)" fill="white"/>
<rect x="1450.95" y="1159.42" width="21.6278" height="79.4494" rx="10.8139" transform="rotate(60 1450.95 1159.42)" fill="white"/>
<rect x="1182.4" y="1180.28" width="21.6278" height="28.6412" rx="10.8139" transform="rotate(60 1182.4 1180.28)" fill="white"/>
<path d="M1193.57 1121.47C1198.74 1118.49 1205.36 1120.26 1208.34 1125.43C1211.33 1130.6 1209.56 1137.22 1204.39 1140.2L1198.31 1143.71C1193.14 1146.7 1186.53 1144.92 1183.54 1139.75C1180.55 1134.58 1182.33 1127.96 1187.5 1124.98L1193.57 1121.47Z" fill="white"/>
<rect x="1396.14" y="1058.39" width="21.6278" height="28.6412" rx="10.8139" transform="rotate(60 1396.14 1058.39)" fill="white"/>
<rect x="1330.39" y="1048.37" width="21.6278" height="28.6412" rx="10.8139" transform="rotate(60 1330.39 1048.37)" fill="white"/>
<rect x="1396.14" y="1058.39" width="21.6278" height="28.6412" rx="10.8139" transform="rotate(60 1396.14 1058.39)" fill="white"/>
<rect x="1332.74" y="1299.01" width="21.6278" height="28.6412" rx="10.8139" transform="rotate(60 1332.74 1299.01)" fill="white"/>
<rect x="1208.23" y="1326.11" width="21.6278" height="28.6412" rx="10.8139" transform="rotate(60 1208.23 1326.11)" fill="white"/>
<rect x="1357.27" y="1231.82" width="19.1424" height="79.4494" rx="9.57122" transform="rotate(60 1357.27 1231.82)" fill="white"/>
<rect x="1323.5" y="1051.31" width="19.1424" height="79.4494" rx="9.57122" transform="rotate(60 1323.5 1051.31)" fill="white"/>
<rect x="1291.52" y="1050.34" width="19.1424" height="79.4494" rx="9.57122" transform="rotate(60 1291.52 1050.34)" fill="white"/>
<rect x="1609.99" y="964.608" width="83.7631" height="639.857" rx="41.8816" transform="rotate(60 1609.99 964.608)" fill="white"/>
<rect x="1800.61" y="1615.87" width="19.1424" height="146.227" rx="9.57122" transform="rotate(165 1800.61 1615.87)" fill="white"/>
<rect x="1839.07" y="1522.09" width="19.1424" height="146.227" rx="9.57122" transform="rotate(165 1839.07 1522.09)" fill="white"/>
<rect x="1797.04" y="1671.33" width="19.1424" height="146.227" rx="9.57122" transform="rotate(165 1797.04 1671.33)" fill="white"/>
<rect x="1641.48" y="1621.21" width="19.1424" height="79.4494" rx="9.57122" transform="rotate(165 1641.48 1621.21)" fill="white"/>
<rect x="1632.27" y="1651.86" width="19.1424" height="79.4494" rx="9.57122" transform="rotate(165 1632.27 1651.86)" fill="white"/>
<rect x="1687.17" y="1730.44" width="21.6278" height="79.4494" rx="10.8139" transform="rotate(165 1687.17 1730.44)" fill="white"/>
<rect x="1736.53" y="1465.64" width="21.6278" height="28.6412" rx="10.8139" transform="rotate(165 1736.53 1465.64)" fill="white"/>
<rect x="1837.89" y="1443.15" width="21.6278" height="28.6412" rx="10.8139" transform="rotate(165 1837.89 1443.15)" fill="white"/>
<rect x="1769.77" y="1399.06" width="21.6278" height="28.6412" rx="10.8139" transform="rotate(165 1769.77 1399.06)" fill="white"/>
<rect x="1798.94" y="1703.64" width="21.6278" height="28.6412" rx="10.8139" transform="rotate(165 1798.94 1703.64)" fill="white"/>
<rect x="1825.64" y="1642.73" width="21.6278" height="28.6412" rx="10.8139" transform="rotate(165 1825.64 1642.73)" fill="white"/>
<rect x="1798.94" y="1703.64" width="21.6278" height="28.6412" rx="10.8139" transform="rotate(165 1798.94 1703.64)" fill="white"/>
<rect x="1582.93" y="1580.13" width="21.6278" height="28.6412" rx="10.8139" transform="rotate(165 1582.93 1580.13)" fill="white"/>
<rect x="1641.48" y="1621.21" width="19.1424" height="79.4494" rx="9.57122" transform="rotate(165 1641.48 1621.21)" fill="white"/>
<rect x="1865.78" y="2073.71" width="83.7631" height="639.857" rx="41.8816" transform="rotate(165 1865.78 2073.71)" fill="white"/>
<rect x="155.337" y="1271.1" width="27.0101" height="206.327" rx="13.5051" transform="rotate(60 155.337 1271.1)" fill="white"/>
<rect x="232.228" y="1255.71" width="27.0101" height="206.327" rx="13.5051" transform="rotate(60 232.228 1255.71)" fill="white"/>
<rect x="220.729" y="1486.02" width="27.0101" height="112.104" rx="13.5051" transform="rotate(60 220.729 1486.02)" fill="white"/>
<rect x="268.852" y="1749.15" width="27.0101" height="112.104" rx="13.5051" transform="rotate(165 268.852 1749.15)" fill="white"/>
<rect x="238.175" y="1731.01" width="27.0101" height="112.104" rx="13.5051" transform="rotate(165 238.175 1731.01)" fill="white"/>
<rect x="120.752" y="1674.04" width="27.0101" height="112.104" rx="13.5051" transform="rotate(165 120.752 1674.04)" fill="white"/>
<rect x="352.913" y="1383.87" width="30.517" height="112.104" rx="15.2585" transform="rotate(60 352.913 1383.87)" fill="white"/>
<rect x="275.568" y="1241.32" width="30.517" height="40.413" rx="15.2585" transform="rotate(60 275.568 1241.32)" fill="white"/>
<rect x="182.802" y="1227.18" width="30.517" height="40.413" rx="15.2585" transform="rotate(60 182.802 1227.18)" fill="white"/>
<rect x="275.568" y="1241.32" width="30.517" height="40.413" rx="15.2585" transform="rotate(60 275.568 1241.32)" fill="white"/>
<rect x="186.113" y="1580.83" width="30.517" height="40.413" rx="15.2585" transform="rotate(60 186.113 1580.83)" fill="white"/>
<rect x="186.113" y="1580.83" width="30.517" height="40.413" rx="15.2585" transform="rotate(60 186.113 1580.83)" fill="white"/>
<rect x="296.818" y="1620.92" width="30.517" height="40.413" rx="15.2585" transform="rotate(60 296.818 1620.92)" fill="white"/>
<rect x="220.729" y="1486.02" width="27.0101" height="112.104" rx="13.5051" transform="rotate(60 220.729 1486.02)" fill="white"/>
<rect x="755.534" y="1015.08" width="118.19" height="902.844" rx="59.0952" transform="rotate(60 755.534 1015.08)" fill="white"/>
<rect x="66.4231" y="1068.59" width="19.1424" height="146.227" rx="9.57122" transform="rotate(60 66.4231 1068.59)" fill="white"/>
<rect x="58.2735" y="1231.82" width="19.1424" height="79.4494" rx="9.57122" transform="rotate(60 58.2735 1231.82)" fill="white"/>
<rect x="90.2568" y="1232.78" width="19.1424" height="79.4494" rx="9.57122" transform="rotate(60 90.2568 1232.78)" fill="white"/>
<rect x="151.954" y="1159.42" width="21.6278" height="79.4494" rx="10.8139" transform="rotate(60 151.954 1159.42)" fill="white"/>
<rect x="97.1388" y="1058.39" width="21.6278" height="28.6412" rx="10.8139" transform="rotate(60 97.1388 1058.39)" fill="white"/>
<rect x="31.3941" y="1048.37" width="21.6278" height="28.6412" rx="10.8139" transform="rotate(60 31.3941 1048.37)" fill="white"/>
<rect x="97.1388" y="1058.39" width="21.6278" height="28.6412" rx="10.8139" transform="rotate(60 97.1388 1058.39)" fill="white"/>
<rect x="33.7407" y="1299.01" width="21.6278" height="28.6412" rx="10.8139" transform="rotate(60 33.7407 1299.01)" fill="white"/>
<rect x="58.2735" y="1231.82" width="19.1424" height="79.4494" rx="9.57122" transform="rotate(60 58.2735 1231.82)" fill="white"/>
<rect x="24.4988" y="1051.31" width="19.1424" height="79.4494" rx="9.57122" transform="rotate(60 24.4988 1051.31)" fill="white"/>
<rect x="-7.48462" y="1050.34" width="19.1424" height="79.4494" rx="9.57122" transform="rotate(60 -7.48462 1050.34)" fill="white"/>
<rect x="310.987" y="964.608" width="83.7631" height="639.857" rx="41.8816" transform="rotate(60 310.987 964.608)" fill="white"/>
<rect x="501.608" y="1615.87" width="19.1424" height="146.227" rx="9.57122" transform="rotate(165 501.608 1615.87)" fill="white"/>
<rect x="540.075" y="1522.09" width="19.1424" height="146.227" rx="9.57122" transform="rotate(165 540.075 1522.09)" fill="white"/>
<rect x="498.036" y="1671.33" width="19.1424" height="146.227" rx="9.57122" transform="rotate(165 498.036 1671.33)" fill="white"/>
<rect x="342.485" y="1621.21" width="19.1424" height="79.4494" rx="9.57122" transform="rotate(165 342.485 1621.21)" fill="white"/>
<rect x="333.273" y="1651.86" width="19.1424" height="79.4494" rx="9.57122" transform="rotate(165 333.273 1651.86)" fill="white"/>
<rect x="388.168" y="1730.44" width="21.6278" height="79.4494" rx="10.8139" transform="rotate(165 388.168 1730.44)" fill="white"/>
<rect x="437.527" y="1465.64" width="21.6278" height="28.6412" rx="10.8139" transform="rotate(165 437.527 1465.64)" fill="white"/>
<rect x="538.885" y="1443.15" width="21.6278" height="28.6412" rx="10.8139" transform="rotate(165 538.885 1443.15)" fill="white"/>
<rect x="470.774" y="1399.06" width="21.6278" height="28.6412" rx="10.8139" transform="rotate(165 470.774 1399.06)" fill="white"/>
<rect x="499.942" y="1703.64" width="21.6278" height="28.6412" rx="10.8139" transform="rotate(165 499.942 1703.64)" fill="white"/>
<rect x="526.637" y="1642.73" width="21.6278" height="28.6412" rx="10.8139" transform="rotate(165 526.637 1642.73)" fill="white"/>
<rect x="499.942" y="1703.64" width="21.6278" height="28.6412" rx="10.8139" transform="rotate(165 499.942 1703.64)" fill="white"/>
<rect x="283.934" y="1580.13" width="21.6278" height="28.6412" rx="10.8139" transform="rotate(165 283.934 1580.13)" fill="white"/>
<rect x="342.485" y="1621.21" width="19.1424" height="79.4494" rx="9.57122" transform="rotate(165 342.485 1621.21)" fill="white"/>
<rect x="566.779" y="2073.71" width="83.7631" height="639.857" rx="41.8816" transform="rotate(165 566.779 2073.71)" fill="white"/>
<rect x="105.337" y="111.099" width="27.0101" height="206.327" rx="13.5051" transform="rotate(60 105.337 111.099)" fill="white"/>
<rect x="182.228" y="95.7135" width="27.0101" height="206.327" rx="13.5051" transform="rotate(60 182.228 95.7135)" fill="white"/>
<rect x="170.729" y="326.021" width="27.0101" height="112.104" rx="13.5051" transform="rotate(60 170.729 326.021)" fill="white"/>
<rect x="218.852" y="589.152" width="27.0101" height="112.104" rx="13.5051" transform="rotate(165 218.852 589.152)" fill="white"/>
<rect x="188.175" y="571.008" width="27.0101" height="112.104" rx="13.5051" transform="rotate(165 188.175 571.008)" fill="white"/>
<rect x="78.1044" y="593.284" width="102.01" height="112.104" rx="36" transform="rotate(165 78.1044 593.284)" fill="white"/>
<rect x="70.7523" y="514.043" width="27.0101" height="112.104" rx="13.5051" transform="rotate(165 70.7523 514.043)" fill="white"/>
<rect x="302.913" y="223.87" width="30.517" height="112.104" rx="15.2585" transform="rotate(60 302.913 223.87)" fill="white"/>
<rect x="225.568" y="81.317" width="30.517" height="40.413" rx="15.2585" transform="rotate(60 225.568 81.317)" fill="white"/>
<rect x="132.802" y="67.1773" width="30.517" height="40.413" rx="15.2585" transform="rotate(60 132.802 67.1773)" fill="white"/>
<rect x="225.568" y="81.317" width="30.517" height="40.413" rx="15.2585" transform="rotate(60 225.568 81.317)" fill="white"/>
<rect x="136.113" y="420.827" width="30.517" height="40.413" rx="15.2585" transform="rotate(60 136.113 420.827)" fill="white"/>
<rect x="136.113" y="420.827" width="30.517" height="40.413" rx="15.2585" transform="rotate(60 136.113 420.827)" fill="white"/>
<rect x="246.818" y="460.918" width="30.517" height="40.413" rx="15.2585" transform="rotate(60 246.818 460.918)" fill="white"/>
<rect x="170.729" y="326.021" width="27.0101" height="112.104" rx="13.5051" transform="rotate(60 170.729 326.021)" fill="white"/>
<rect x="705.534" y="-144.924" width="118.19" height="902.844" rx="59.0952" transform="rotate(60 705.534 -144.924)" fill="white"/>
<rect x="8.2735" y="71.8156" width="19.1424" height="79.4494" rx="9.57122" transform="rotate(60 8.2735 71.8156)" fill="white"/>
<rect x="40.2568" y="72.7824" width="19.1424" height="79.4494" rx="9.57122" transform="rotate(60 40.2568 72.7824)" fill="white"/>
<rect x="101.954" y="-0.580597" width="21.6278" height="79.4494" rx="10.8139" transform="rotate(60 101.954 -0.580597)" fill="white"/>
<rect x="8.2735" y="71.8156" width="19.1424" height="79.4494" rx="9.57122" transform="rotate(60 8.2735 71.8156)" fill="white"/>
<rect x="260.987" y="-195.392" width="83.7631" height="639.857" rx="41.8816" transform="rotate(60 260.987 -195.392)" fill="white"/>
<rect x="451.608" y="455.872" width="19.1424" height="146.227" rx="9.57122" transform="rotate(165 451.608 455.872)" fill="white"/>
<rect x="490.075" y="362.087" width="19.1424" height="146.227" rx="9.57122" transform="rotate(165 490.075 362.087)" fill="white"/>
<rect x="448.036" y="511.33" width="19.1424" height="146.227" rx="9.57122" transform="rotate(165 448.036 511.33)" fill="white"/>
<rect x="292.485" y="461.214" width="19.1424" height="79.4494" rx="9.57122" transform="rotate(165 292.485 461.214)" fill="white"/>
<rect x="283.273" y="491.857" width="19.1424" height="79.4494" rx="9.57122" transform="rotate(165 283.273 491.857)" fill="white"/>
<rect x="338.168" y="570.44" width="21.6278" height="79.4494" rx="10.8139" transform="rotate(165 338.168 570.44)" fill="white"/>
<rect x="80.4539" y="568.742" width="21.6278" height="79.4494" rx="10.8139" transform="rotate(165 80.4539 568.742)" fill="white"/>
<rect x="387.527" y="305.637" width="21.6278" height="28.6412" rx="10.8139" transform="rotate(165 387.527 305.637)" fill="white"/>
<rect x="488.885" y="283.152" width="21.6278" height="28.6412" rx="10.8139" transform="rotate(165 488.885 283.152)" fill="white"/>
<rect x="420.774" y="239.063" width="21.6278" height="28.6412" rx="10.8139" transform="rotate(165 420.774 239.063)" fill="white"/>
<rect x="449.942" y="543.64" width="21.6278" height="28.6412" rx="10.8139" transform="rotate(165 449.942 543.64)" fill="white"/>
<rect x="476.637" y="482.729" width="21.6278" height="28.6412" rx="10.8139" transform="rotate(165 476.637 482.729)" fill="white"/>
<rect x="449.942" y="543.64" width="21.6278" height="28.6412" rx="10.8139" transform="rotate(165 449.942 543.64)" fill="white"/>
<rect x="233.934" y="420.127" width="21.6278" height="28.6412" rx="10.8139" transform="rotate(165 233.934 420.127)" fill="white"/>
<rect x="292.485" y="461.214" width="19.1424" height="79.4494" rx="9.57122" transform="rotate(165 292.485 461.214)" fill="white"/>
<rect x="516.779" y="913.707" width="83.7631" height="639.857" rx="41.8816" transform="rotate(165 516.779 913.707)" fill="white"/>
<path d="M986.5 138C220 -40.9999 73.8139 433.5 73.8139 474.5L-165.5 820.5L-271 624.5C-315.5 606.167 -420.1 555.7 -482.5 500.5C-560.5 431.5 -578.5 298.5 -519 92C-459.5 -114.5 -340 -114.5 -97.0001 -270.5C146 -426.5 169.5 -362.5 426.5 -399C683.5 -435.5 803 -390 1027.5 -399C1252 -408 1647.5 -362.5 1858.5 -335C2069.5 -307.5 2083.5 -201.5 2230 60C2376.5 321.5 2262.5 280.5 2271.5 624.5C2280.5 968.5 2262.5 978 2230 1271.5C2197.5 1565 2124.5 1671 2056 1822.5C1987.5 1974 1606 2098 1376.5 2166.5C1147 2235 1060 2327.5 803 2414.5C546 2501.5 500 2437.5 233.5 2414.5C-33.0001 2391.5 -165.5 2318 -202.5 2221.5C-239.5 2125 -234.5 2010.5 -271 1671C-307.5 1331.5 -280.5 1478 -271 1317.5C-261.5 1157 -184 1024 -165.5 978C-147 932 -110.5 799 -97.0001 753C-86.2001 716.2 17.8333 587.667 68.4999 528C102.167 561.667 164.9 643.7 146.5 702.5C123.5 776 123.5 913.5 68.4999 978C13.4999 1042.5 -0.500061 1083.5 105 1432.5C149.39 1579.34 166.162 1624.48 171.406 1632.31C170.735 1628.51 170.101 1624.58 169.5 1620.5C163.997 1583.14 178.626 1643.08 171.406 1632.31C181.35 1688.62 199.308 1716.96 233.5 1790.5C270 1869 757 1928 862.5 1960C968 1992 1271 1941.5 1330.5 1928C1390 1914.5 1592 1749 1606 1712C1620 1675 1780.5 987 1808 941C1835.5 895 2037.5 519 1780.5 431.5C1523.5 344 1753 317 986.5 138Z" fill="white" stroke="black"/>
</svg>
